<svg width="148" height="60" viewBox="0 0 148 60" fill="none" xmlns="http://www.w3.org/2000/svg">
<path d="M6.23784 26.3059V37.023C6.23784 37.9078 6.42586 38.5382 6.8019 38.9143C7.17794 39.2682 7.83048 39.4451 8.75952 39.4451H10.9826V42H8.26182C6.5807 42 5.31986 41.6129 4.4793 40.8387C3.63874 40.0645 3.21846 38.7926 3.21846 37.023V26.3059H0.86268V23.8174H3.21846V19.2385H6.23784V23.8174H10.9826V26.3059H6.23784ZM17.6603 26.7704C18.1912 25.7307 18.9433 24.9234 19.9166 24.3482C20.912 23.7731 22.1175 23.4856 23.5332 23.4856V26.6045H22.7369C19.3525 26.6045 17.6603 28.4404 17.6603 32.1124V42H14.6409V23.8174H17.6603V26.7704ZM25.8905 32.8423C25.8905 30.9842 26.2665 29.3584 27.0186 27.9649C27.7707 26.5492 28.7993 25.4542 30.1044 24.68C31.4316 23.9058 32.9025 23.5187 34.5173 23.5187C36.1099 23.5187 37.4924 23.8616 38.6648 24.5473C39.8372 25.233 40.7109 26.0957 41.286 27.1354V23.8174H44.3386V42H41.286V38.6156C40.6888 39.6774 39.7929 40.5622 38.5984 41.27C37.4261 41.9558 36.0546 42.2986 34.4841 42.2986C32.8694 42.2986 31.4094 41.9005 30.1044 41.1041C28.7993 40.3078 27.7707 39.1908 27.0186 37.753C26.2665 36.3152 25.8905 34.6783 25.8905 32.8423ZM41.286 32.8755C41.286 31.5041 41.0095 30.3096 40.4565 29.2921C39.9035 28.2745 39.1514 27.5003 38.2003 26.9695C37.2712 26.4165 36.2427 26.14 35.1145 26.14C33.9864 26.14 32.9578 26.4054 32.0288 26.9363C31.0998 27.4672 30.3587 28.2414 29.8057 29.2589C29.2527 30.2764 28.9762 31.4709 28.9762 32.8423C28.9762 34.2359 29.2527 35.4525 29.8057 36.4921C30.3587 37.5096 31.0998 38.2949 32.0288 38.8479C32.9578 39.3788 33.9864 39.6442 35.1145 39.6442C36.2427 39.6442 37.2712 39.3788 38.2003 38.8479C39.1514 38.2949 39.9035 37.5096 40.4565 36.4921C41.0095 35.4525 41.286 34.2469 41.286 32.8755ZM56.2098 39.2129L61.8504 23.8174H65.0688L57.9351 42H54.4181L47.2844 23.8174H50.536L56.2098 39.2129ZM84.63 32.2119C84.63 32.787 84.5968 33.3953 84.5305 34.0368H69.9976C70.1082 35.8285 70.7165 37.2331 71.8225 38.2507C72.9506 39.2461 74.311 39.7438 75.9037 39.7438C77.2087 39.7438 78.2926 39.4451 79.1553 38.8479C80.0401 38.2285 80.6595 37.4101 81.0134 36.3926H84.265C83.7784 38.1401 82.8051 39.5668 81.3452 40.6728C79.8853 41.7567 78.0714 42.2986 75.9037 42.2986C74.1783 42.2986 72.6299 41.9115 71.2585 41.1373C69.9091 40.3631 68.8474 39.2682 68.0732 37.8525C67.299 36.4147 66.9119 34.7557 66.9119 32.8755C66.9119 30.9953 67.2879 29.3474 68.04 27.9317C68.7921 26.516 69.8428 25.4321 71.1921 24.68C72.5635 23.9058 74.1341 23.5187 75.9037 23.5187C77.629 23.5187 79.1553 23.8948 80.4825 24.6469C81.8097 25.3989 82.8272 26.4386 83.5351 27.7658C84.265 29.0709 84.63 30.5529 84.63 32.2119ZM81.5111 31.5815C81.5111 30.4312 81.2567 29.4469 80.7479 28.6285C80.2392 27.7879 79.5424 27.1575 78.6576 26.7372C77.7949 26.2948 76.8327 26.0736 75.7709 26.0736C74.2447 26.0736 72.9396 26.5602 71.8557 27.5335C70.7939 28.5068 70.1856 29.8561 70.0308 31.5815H81.5111ZM91.6349 17.4468V42H88.6155V17.4468H91.6349ZM95.6528 32.8423C95.6528 30.9842 96.0288 29.3584 96.7809 27.9649C97.533 26.5492 98.5615 25.4542 99.8666 24.68C101.194 23.9058 102.665 23.5187 104.28 23.5187C105.872 23.5187 107.255 23.8616 108.427 24.5473C109.599 25.233 110.473 26.0957 111.048 27.1354V23.8174H114.101V42H111.048V38.6156C110.451 39.6774 109.555 40.5622 108.361 41.27C107.188 41.9558 105.817 42.2986 104.246 42.2986C102.632 42.2986 101.172 41.9005 99.8666 41.1041C98.5615 40.3078 97.533 39.1908 96.7809 37.753C96.0288 36.3152 95.6528 34.6783 95.6528 32.8423ZM111.048 32.8755C111.048 31.5041 110.772 30.3096 110.219 29.2921C109.666 28.2745 108.914 27.5003 107.963 26.9695C107.033 26.4165 106.005 26.14 104.877 26.14C103.749 26.14 102.72 26.4054 101.791 26.9363C100.862 27.4672 100.121 28.2414 99.568 29.2589C99.015 30.2764 98.7385 31.4709 98.7385 32.8423C98.7385 34.2359 99.015 35.4525 99.568 36.4921C100.121 37.5096 100.862 38.2949 101.791 38.8479C102.72 39.3788 103.749 39.6442 104.877 39.6442C106.005 39.6442 107.033 39.3788 107.963 38.8479C108.914 38.2949 109.666 37.5096 110.219 36.4921C110.772 35.4525 111.048 34.2469 111.048 32.8755ZM120.829 20.8643C120.254 20.8643 119.767 20.6653 119.369 20.2671C118.993 19.8689 118.805 19.3823 118.805 18.8072C118.805 18.2321 118.993 17.7454 119.369 17.3473C119.767 16.9491 120.254 16.75 120.829 16.75C121.404 16.75 121.88 16.9491 122.256 17.3473C122.654 17.7454 122.853 18.2321 122.853 18.8072C122.853 19.3823 122.654 19.8689 122.256 20.2671C121.88 20.6653 121.404 20.8643 120.829 20.8643ZM122.322 45.9484C122.322 47.5632 121.913 48.7466 121.095 49.4987C120.276 50.2508 119.082 50.6268 117.511 50.6268H115.753V48.0719H117.013C117.854 48.0719 118.44 47.906 118.772 47.5742C119.126 47.2424 119.303 46.6784 119.303 45.8821V23.8174H122.322V45.9484ZM126.305 32.8423C126.305 30.9842 126.681 29.3584 127.433 27.9649C128.186 26.5492 129.214 25.4542 130.519 24.68C131.846 23.9058 133.317 23.5187 134.932 23.5187C136.525 23.5187 137.907 23.8616 139.08 24.5473C140.252 25.233 141.126 26.0957 141.701 27.1354V23.8174H144.753V42H141.701V38.6156C141.104 39.6774 140.208 40.5622 139.013 41.27C137.841 41.9558 136.47 42.2986 134.899 42.2986C133.284 42.2986 131.824 41.9005 130.519 41.1041C129.214 40.3078 128.186 39.1908 127.433 37.753C126.681 36.3152 126.305 34.6783 126.305 32.8423ZM141.701 32.8755C141.701 31.5041 141.424 30.3096 140.871 29.2921C140.318 28.2745 139.566 27.5003 138.615 26.9695C137.686 26.4165 136.658 26.14 135.529 26.14C134.401 26.14 133.373 26.4054 132.444 26.9363C131.515 27.4672 130.774 28.2414 130.221 29.2589C129.668 30.2764 129.391 31.4709 129.391 32.8423C129.391 34.2359 129.668 35.4525 130.221 36.4921C130.774 37.5096 131.515 38.2949 132.444 38.8479C133.373 39.3788 134.401 39.6442 135.529 39.6442C136.658 39.6442 137.686 39.3788 138.615 38.8479C139.566 38.2949 140.318 37.5096 140.871 36.4921C141.424 35.4525 141.701 34.2469 141.701 32.8755Z" fill="white"/>
</svg>
